<?xml version="1.0" encoding="UTF-8"?>
<svg id="Contours" xmlns="http://www.w3.org/2000/svg" viewBox="0 0 1172.57 733.07">
  <defs>
    <style>
      .cls-1, .cls-2, .cls-3 {
        stroke: #000;
        stroke-miterlimit: 10;
      }

      .cls-1, .cls-4 {
        fill: #fbd8b6;
      }

      .cls-1, .cls-3 {
        stroke-width: 20px;
      }

      .cls-2 {
        stroke-width: 3px;
      }

      .cls-5 {
        fill: #e26b8e;
      }

      .cls-5, .cls-4 {
        stroke-width: 0px;
      }
    </style>
  </defs>
  <path class="cls-4" d="m58.93,18h1054.78c21.77,0,39.44,17.67,39.44,39.44v618.19c0,21.77-17.67,39.44-39.44,39.44H58.93c-21.77,0-39.44-17.67-39.44-39.44V57.44c0-21.77,17.67-39.44,39.44-39.44Z"/>
  <path class="cls-3" d="m1113.7,715.07v-8H58.93c-4.36,0-8.48-.88-12.24-2.47-5.63-2.38-10.45-6.38-13.84-11.4-3.39-5.03-5.36-11.03-5.36-17.57V57.44c0-4.36.88-8.48,2.47-12.24,2.38-5.63,6.38-10.45,11.4-13.84,5.03-3.39,11.03-5.36,17.57-5.36h1054.78c4.36,0,8.48.88,12.24,2.47,5.63,2.38,10.45,6.38,13.84,11.4,3.39,5.03,5.36,11.03,5.36,17.57v618.19c0,4.36-.88,8.48-2.47,12.24-2.38,5.63-6.38,10.45-11.4,13.84-5.03,3.39-11.03,5.36-17.57,5.36v16c6.53,0,12.79-1.33,18.47-3.73,8.52-3.61,15.75-9.61,20.86-17.18,5.11-7.56,8.11-16.73,8.11-26.53V57.44c0-6.53-1.33-12.79-3.73-18.47-3.61-8.52-9.61-15.75-17.18-20.86-7.56-5.11-16.73-8.11-26.53-8.11H58.93c-6.53,0-12.79,1.33-18.47,3.73-8.52,3.61-15.75,9.61-20.86,17.18-5.11,7.56-8.11,16.73-8.11,26.53v618.19c0,6.53,1.33,12.79,3.73,18.47,3.61,8.52,9.61,15.75,17.18,20.86,7.56,5.11,16.73,8.11,26.53,8.11h1054.78v-8Z"/>
  <path class="cls-4" d="m19.49,57.44l533.16,481.76c16.03,14.49,40.4,14.61,56.57.27L1153.14,57.44"/>
  <path class="cls-3" d="m14.12,63.38l533.16,481.76c4.78,4.32,10.22,7.59,15.96,9.75,5.74,2.17,11.79,3.25,17.84,3.25,5.97,0,11.94-1.05,17.61-3.17,5.68-2.11,11.06-5.29,15.82-9.51L1158.45,63.43l-10.61-11.97-543.92,482.04c-3.27,2.9-6.93,5.05-10.8,6.5-3.87,1.44-7.95,2.16-12.03,2.16-4.14,0-8.27-.74-12.18-2.22-3.91-1.48-7.6-3.69-10.89-6.66L24.85,51.5l-10.73,11.87h0Z"/>
  <polyline class="cls-3" points="33.27 710.02 402.44 407.58 392.3 395.2 23.13 697.65"/>
  <line class="cls-1" x1="769.76" y1="397.72" x2="1147.64" y2="691.22"/>
  <polyline class="cls-3" points="764.85 404.04 1142.73 697.54 1152.55 684.9 774.66 391.4"/>
  <circle class="cls-5" cx="585.4" cy="431.66" r="52.28" transform="translate(65.54 940.36) rotate(-80.78)"/>
  <path class="cls-2" d="m637.68,431.66h-8c0,6.14-1.24,11.94-3.48,17.23-3.35,7.94-8.98,14.71-16.05,19.49-7.08,4.78-15.55,7.55-24.75,7.56-6.14,0-11.94-1.24-17.23-3.48-7.94-3.35-14.71-8.98-19.49-16.05-4.78-7.08-7.55-15.55-7.56-24.75,0-6.14,1.24-11.94,3.48-17.23,3.35-7.94,8.98-14.71,16.05-19.49,7.08-4.78,15.55-7.55,24.75-7.56,6.14,0,11.94,1.24,17.23,3.48,7.94,3.35,14.71,8.98,19.49,16.05,4.78,7.08,7.55,15.55,7.56,24.75h16c0-8.3-1.69-16.25-4.74-23.47-4.58-10.83-12.21-20.02-21.83-26.51-9.61-6.5-21.25-10.3-33.71-10.3-8.3,0-16.25,1.69-23.47,4.74-10.83,4.58-20.02,12.21-26.51,21.83-6.5,9.61-10.3,21.25-10.3,33.71,0,8.3,1.69,16.25,4.74,23.47,4.58,10.83,12.21,20.02,21.83,26.51,9.61,6.5,21.25,10.3,33.71,10.3,8.3,0,16.25-1.69,23.47-4.74,10.83-4.58,20.02-12.21,26.51-21.83,6.5-9.61,10.3-21.25,10.3-33.71h-8Z"/>
  <path class="cls-5" d="m610.16,388.55s62.37-55.03,95.39-45.86c33.02,9.17,49.53,97.22,40.36,124.74-9.17,27.52-45.86,62.37-95.39,34.85-49.53-27.52-33.02-27.52-33.02-27.52,0,0,49.53-40.36-7.34-86.22Z"/>
  <path class="cls-2" d="m612.76,387.82l5.29,6-1.81-2.05,1.81,2.05h0s-1.81-2.05-1.81-2.05l1.81,2.05s13.16-11.58,30.19-22.93c8.51-5.67,17.99-11.29,27.15-15.39,4.57-2.05,9.06-3.72,13.25-4.85,4.19-1.14,8.07-1.73,11.41-1.72,2.24,0,4.22.26,5.96.74,2.13.59,4.36,1.76,6.7,3.64,2.04,1.64,4.13,3.81,6.17,6.46,3.58,4.63,6.98,10.7,9.98,17.61,4.5,10.36,8.09,22.59,10.5,34.71,2.42,12.11,3.68,24.15,3.67,34.05,0,3.9-.19,7.47-.56,10.54-.37,3.07-.92,5.64-1.54,7.49-1.44,4.34-3.77,9.08-6.89,13.67-4.67,6.89-11.09,13.42-18.77,18.11-3.84,2.35-8,4.26-12.44,5.58-4.44,1.32-9.17,2.06-14.22,2.06-4.68,0-9.63-.63-14.89-2.08-5.26-1.44-10.83-3.7-16.7-6.96-7.33-4.07-13.15-7.51-17.73-10.39-3.43-2.16-6.16-4.01-8.29-5.56-3.19-2.31-5.02-4-5.74-4.83-.18-.2-.29-.34-.33-.41l-.02-.03-2.26,1.47,2.52-.92c-.15-.39-.26-.55-.26-.55l-2.26,1.47,2.52-.92-5.22,1.9h5.54c0-.87-.18-1.52-.32-1.9l-5.22,1.9h5.54-6.53l6,2.57c.37-.85.54-1.79.53-2.57h-6.53l6,2.57-6.08-2.61,4.88,4.48c.44-.48.89-1.13,1.21-1.87l-6.08-2.61,4.88,4.48-4.42-4.06,2.46,5.48c.45-.21,1.16-.58,1.95-1.43l-4.42-4.06,2.46,5.48-1.68-3.73.55,4.07c.18-.03.43-.04,1.13-.34l-1.68-3.73.55,4.07-.54-3.99v4.02c.26,0,.36,0,.54-.03l-.54-3.99v4.02s2.85,0,2.85,0l2.21-1.8c.36-.31,5.84-4.78,11.46-12.66,2.8-3.94,5.64-8.75,7.81-14.37,2.17-5.61,3.66-12.05,3.66-19.09.01-8.08-2.01-16.91-6.86-25.79-4.85-8.9-12.43-17.85-23.44-26.73l-5.02,6.23,5.29,6-5.29-6-4.87,2.71c9.73,7.85,15.65,18.77,19.28,25.44,3.63,6.69,4.9,12.65,4.91,18.14,0,4.78-1.01,9.24-2.59,13.33-2.36,6.13-6.05,11.38-9.16,15-1.55,1.81-2.94,3.22-3.91,4.14-.49.46-.87.8-1.11,1.02-.12.11-.21.18-.25.22l-.04.03.42.51-.42-.51h0s.42.51.42.51l-.42-.51,3.49,4.25-3.47-4.26h-.02s3.49,4.26,3.49,4.26l-3.47-4.26,5.05,6.2v-8c-.22,0-.66,0-1.3.08-.48.05-1.07.14-1.79.33-.54.14-1.16.34-1.87.66-.53.24-1.12.56-1.74,1.01-.92.66-1.96,1.66-2.74,3.05-.79,1.38-1.22,3.1-1.21,4.64,0,.92.13,1.77.33,2.54.38,1.44.96,2.58,1.61,3.6,1.15,1.78,2.53,3.26,4.34,4.92,2.71,2.46,6.43,5.26,11.82,8.79,5.38,3.52,12.43,7.75,21.69,12.9,6.89,3.83,13.66,6.6,20.24,8.4,6.59,1.81,12.99,2.65,19.12,2.65,8.83,0,17.08-1.75,24.5-4.71,11.14-4.46,20.42-11.59,27.64-19.68,7.21-8.11,12.41-17.17,15.36-25.97,1.08-3.24,1.78-6.78,2.24-10.64.46-3.85.68-8.02.68-12.45,0-9.77-1.05-20.81-3.03-32.13-1.49-8.49-3.51-17.12-6.06-25.44-3.83-12.49-8.77-24.28-15.09-33.93-3.17-4.82-6.69-9.12-10.73-12.65-4.03-3.52-8.63-6.3-13.81-7.74-3.35-.93-6.79-1.32-10.24-1.32-5.19,0-10.42.88-15.65,2.29-9.16,2.49-18.37,6.68-27.2,11.5-13.23,7.24-25.56,15.96-34.67,22.9-9.1,6.94-14.95,12.1-15.06,12.19l-7.11,6.27,7.99,5.04,4.41-5.31Z"/>
  <path class="cls-5" d="m555.97,386.72s-62.37-55.03-95.39-45.86c-33.02,9.17-49.53,97.22-40.36,124.74,9.17,27.52,45.86,62.37,95.39,34.85s33.02-27.52,33.02-27.52c0,0-49.53-40.36,7.34-86.22Z"/>
  <path class="cls-2" d="m555.97,386.72l5.29-6c-.17-.14-13.65-12.05-31.69-24.1-9.03-6.03-19.2-12.1-29.57-16.76-5.19-2.33-10.44-4.31-15.67-5.73-5.24-1.42-10.47-2.29-15.65-2.29-3.45,0-6.89.39-10.24,1.32-4.6,1.28-8.76,3.62-12.45,6.59-3.23,2.61-6.14,5.7-8.8,9.16-4.66,6.05-8.59,13.21-11.98,21.01-5.07,11.71-8.9,24.89-11.51,37.94-2.6,13.06-3.98,25.96-3.98,37.18,0,4.43.22,8.6.68,12.45.47,3.86,1.17,7.4,2.24,10.64,1.96,5.87,4.93,11.85,8.82,17.59,5.84,8.6,13.77,16.71,23.66,22.77,4.94,3.03,10.37,5.53,16.23,7.27,5.86,1.74,12.16,2.73,18.78,2.72,6.13,0,12.54-.84,19.12-2.65,6.59-1.8,13.35-4.57,20.24-8.4,7.53-4.18,13.59-7.76,18.49-10.84,3.67-2.31,6.69-4.35,9.18-6.16,3.75-2.74,6.32-4.94,8.27-7.12.98-1.1,1.81-2.21,2.52-3.55.35-.67.67-1.41.91-2.25.24-.84.4-1.79.4-2.82,0-1.22-.25-2.55-.76-3.73-.44-1.04-1.06-1.94-1.71-2.65-1.15-1.24-2.33-1.91-3.27-2.34-1.44-.63-2.5-.81-3.3-.92-.8-.11-1.34-.11-1.59-.11v8s5.05-6.2,5.05-6.2l-2.95,3.61,2.97-3.6-.02-.02-2.95,3.61,2.97-3.6h0c-.22-.18-4.72-4-8.95-10.13-2.12-3.06-4.17-6.68-5.67-10.66-1.5-3.99-2.44-8.32-2.44-12.95.01-5.49,1.28-11.45,4.91-18.14,3.63-6.67,9.71-14.08,19.44-21.93l7.38-5.95-7.11-6.27-5.29,6-5.02-6.23c-11.01,8.88-18.6,17.83-23.45,26.73-4.85,8.88-6.87,17.71-6.86,25.79,0,7.04,1.49,13.48,3.66,19.09,3.26,8.42,8,15.03,11.92,19.63,3.93,4.59,7.08,7.18,7.35,7.4l2.21,1.8h2.85s0-4.26,0-4.26l-.47,4.24c.14.01.25.02.47.02v-4.26s-.47,4.24-.47,4.24l.36-3.28-.83,3.19c.23.06.36.07.46.09l.36-3.28-.83,3.19,1.17-4.5-1.93,4.22c.35.16.59.23.76.27l1.17-4.5-1.93,4.22,2.37-5.2-3.34,4.63c.38.27.7.44.96.56l2.37-5.2-3.34,4.63,3.78-5.24-5.62,3.17c.56.99,1.28,1.67,1.85,2.07l3.78-5.24-5.62,3.17,5.71-3.22h-6.56c-.01.98.28,2.24.85,3.22l5.71-3.22h-6.56s5.81,0,5.81,0l-5.64-1.45c-.1.37-.18.86-.18,1.45h5.81l-5.64-1.45,3.31.85-2.92-1.86s-.21.31-.4,1.01l3.31.85-2.92-1.86h0c-.03.06-.59.78-1.78,1.84-1.79,1.61-4.96,4.03-9.87,7.23-4.92,3.21-11.59,7.21-20.47,12.15-5.87,3.26-11.44,5.51-16.7,6.96-5.26,1.44-10.22,2.08-14.89,2.08-6.73,0-12.9-1.31-18.57-3.57-8.49-3.38-15.84-8.97-21.63-15.46-5.79-6.48-9.96-13.87-12.12-20.39-.62-1.84-1.17-4.42-1.54-7.49-.37-3.07-.56-6.64-.56-10.54,0-8.62.95-18.87,2.79-29.36,1.38-7.87,3.27-15.9,5.6-23.54,3.49-11.45,8.03-22.03,13.16-29.82,2.56-3.9,5.25-7.08,7.88-9.38,2.65-2.31,5.18-3.71,7.57-4.37,1.73-.48,3.72-.74,5.96-.74,3.35,0,7.25.59,11.46,1.74,7.37,1.99,15.63,5.66,23.72,10.1,12.16,6.64,23.96,14.96,32.64,21.59,4.34,3.31,7.92,6.2,10.39,8.26,1.24,1.03,2.2,1.84,2.84,2.39.32.28.57.49.73.63l.18.15.04.03h0s.78-.88.78-.88l-.78.88h0s.78-.88.78-.88l-.78.88,5.29-6-5.02-6.23,5.02,6.23Z"/>
  <path class="cls-5" d="m533.12,450.92s-34.67,14.85-40.36-19.49c-3.44-20.78,15.81-32.82,30.73-30.5,11.51,1.79,18.34.69,15.59,6.19-7.34,14.68-9.86,19.49-5.96,43.8Z"/>
  <path class="cls-2" d="m533.12,450.92l-3.15-7.35,1.75,4.08-1.72-4.09h-.03s1.75,4.09,1.75,4.09l-1.72-4.09-.06.03c-.34.14-2.03.8-4.41,1.4-2.38.61-5.44,1.14-8.42,1.13-1.9,0-3.77-.21-5.44-.67-1.26-.35-2.4-.82-3.46-1.46-1.58-.96-2.98-2.25-4.31-4.37-1.31-2.12-2.52-5.14-3.24-9.49-.2-1.24-.3-2.4-.3-3.48,0-2.87.62-5.27,1.65-7.41.78-1.6,1.81-3.05,3.06-4.35,1.87-1.95,4.25-3.53,6.83-4.61,2.57-1.08,5.33-1.63,7.84-1.63.88,0,1.72.06,2.52.19,2.65.41,5.04.68,7.05.89,1.51.16,2.81.29,3.81.42.75.1,1.34.2,1.68.27.13.03.22.05.27.06h.04s.11-.32.11-.32l-.12.33h.01s.11-.33.11-.33l-.12.33,1.03-2.9-1.54,2.65c.3.17.46.23.51.25l1.03-2.9-1.54,2.65,2.6-4.48-3.46,3.85c.34.3.64.5.86.63l2.6-4.48-3.46,3.85,4.09-4.56-5.59,2.51c.39.88.98,1.61,1.49,2.06l4.09-4.56-5.59,2.51,5.56-2.5h-6.1c0,.68.15,1.62.54,2.5l5.56-2.5h-6.1s4.7,0,4.7,0l-4.53-1.34c-.07.23-.18.67-.18,1.34h4.7l-4.53-1.34,2.17.64-2.1-.85s-.04.1-.07.21l2.17.64-2.1-.85.66.27-.65-.28h0s.66.28.66.28l-.65-.28h0s-.02.04-.02.04c-1.25,2.5-2.39,4.78-3.43,7.02-1.55,3.35-2.89,6.66-3.81,10.31-.92,3.65-1.39,7.55-1.38,11.91,0,5.39.66,11.5,1.92,19.4l7.9-1.27-3.15-7.35,3.15,7.35,7.9-1.27c-1.2-7.46-1.73-12.82-1.72-16.86,0-2.19.15-4,.41-5.63.4-2.45,1.05-4.57,2.1-7.14,1.05-2.56,2.54-5.54,4.43-9.31.37-.74.7-1.52.98-2.44.27-.91.47-1.97.48-3.19,0-.87-.11-1.82-.39-2.77-.25-.89-.65-1.77-1.15-2.54-.46-.72-1-1.35-1.55-1.87-1.04-.97-2.08-1.57-2.99-2-1.61-.73-2.94-1.02-4.24-1.27-1.93-.35-3.82-.53-5.91-.76-2.08-.22-4.32-.46-6.75-.84-1.65-.26-3.32-.38-4.98-.38-4.24,0-8.48.79-12.5,2.27-6.03,2.23-11.66,6.03-15.91,11.42-2.12,2.69-3.87,5.78-5.08,9.2-1.21,3.42-1.88,7.16-1.88,11.1,0,1.99.17,4.03.51,6.1.88,5.34,2.42,9.96,4.58,13.87,1.62,2.93,3.59,5.46,5.8,7.53,3.32,3.12,7.15,5.16,10.92,6.36,3.78,1.2,7.5,1.61,10.92,1.61,5.28,0,9.91-.95,13.32-1.88,3.41-.93,5.59-1.85,5.85-1.96l5.74-2.46-.99-6.16-7.9,1.27Z"/>
  <path class="cls-5" d="m636.51,450.92s34.67,14.85,40.36-19.49c3.44-20.78-15.81-32.82-30.73-30.5-11.51,1.79-18.34.69-15.59,6.19,7.34,14.68,9.86,19.49,5.96,43.8Z"/>
  <path class="cls-2" d="m636.51,450.92l-3.15,7.35c.26.11,2.44,1.03,5.85,1.96,3.41.92,8.05,1.87,13.32,1.88,3.05,0,6.32-.32,9.67-1.24,2.51-.69,5.05-1.72,7.49-3.19,3.67-2.2,7.05-5.44,9.64-9.64,2.6-4.2,4.43-9.3,5.42-15.31.34-2.07.51-4.11.51-6.1,0-5.24-1.19-10.15-3.26-14.41-1.55-3.2-3.59-6.03-5.93-8.46-3.52-3.65-7.71-6.4-12.18-8.27-4.47-1.86-9.23-2.86-14.01-2.86-1.66,0-3.33.12-4.98.38-2.24.35-4.33.58-6.28.79-1.46.16-2.84.29-4.17.47-1.01.13-1.99.28-3.02.5-.77.17-1.57.38-2.45.7-.66.25-1.37.56-2.13,1.02-.57.34-1.17.77-1.77,1.33-.89.82-1.76,1.96-2.33,3.27-.58,1.31,2.25,2.25,2.25,3.49,0,1.22-1.49,1.99-1.22,2.9.27.92,1.31,1.86,1.68,2.6,1.26,2.51,4.61,4.96,5.5,6.88,1.34,2.89.49,5.19,1.07,7.49.58,2.31-1.72,5.03-1.71,8.32,0,4.04-.52,9.4-1.72,16.87l-.99,6.16,5.74,2.46,3.15-7.35,7.9,1.27c1.26-7.9,1.92-14.01,1.92-19.4,0-2.91-.2-5.61-.61-8.17-.61-3.85-1.72-7.35-3.11-10.7-1.39-3.36-3.03-6.61-4.91-10.37l-.02-.04-.26.12.27-.11h0s-.26.11-.26.11l.27-.11-2.51,1.04,2.64-.62c-.06-.25-.11-.38-.13-.42l-2.51,1.04,2.64-.62-4.84,1.14h4.96c0-.51-.07-.89-.12-1.14l-4.84,1.14h4.96-6l5.76,1.66c.18-.61.24-1.19.24-1.66h-6l5.76,1.66-6.04-1.74,5.3,3.38c.32-.49.58-1.07.74-1.64l-6.04-1.74,5.3,3.38-5.11-3.27,4.17,4.41c.31-.29.65-.68.94-1.15l-5.11-3.27,4.17,4.41-3.33-3.52,2.04,4.42c.23-.11.69-.34,1.29-.9l-3.33-3.52,2.04,4.42-.95-2.05.76,2.13s.09-.03.19-.08l-.95-2.05.76,2.13-.13-.37.12.37h.01s-.13-.37-.13-.37l.12.37s.49-.13,1.2-.24c1.08-.17,2.72-.34,4.7-.55,1.99-.21,4.33-.48,6.94-.88.8-.12,1.64-.19,2.52-.19,2.23,0,4.66.43,6.97,1.29,3.49,1.28,6.68,3.5,8.87,6.3,1.1,1.4,1.97,2.95,2.58,4.66.61,1.71.96,3.6.96,5.75,0,1.09-.09,2.25-.3,3.48-.64,3.86-1.67,6.69-2.81,8.75-.86,1.55-1.78,2.69-2.74,3.59-1.44,1.34-3.01,2.2-4.85,2.8-1.83.59-3.91.86-6.05.85-3.29,0-6.67-.64-9.12-1.32-1.23-.33-2.23-.67-2.89-.91-.33-.12-.58-.21-.72-.27l-.14-.06h-.01s-1.72,4.09-1.72,4.09l1.75-4.09h-.03s-1.72,4.09-1.72,4.09l1.75-4.09-3.15,7.35,7.9,1.27-7.9-1.27Z"/>
</svg>